<?xml version="1.0" standalone="no"?>
<!DOCTYPE svg PUBLIC "-//W3C//DTD SVG 20010904//EN"
 "http://www.w3.org/TR/2001/REC-SVG-20010904/DTD/svg10.dtd">
<svg version="1.0" xmlns="http://www.w3.org/2000/svg"
 width="200.000000pt" height="200.000000pt" viewBox="0 0 200.000000 200.000000"
 preserveAspectRatio="xMidYMid meet">

<g transform="translate(0.000000,200.000000) scale(0.100000,-0.100000)"
fill="#000000" stroke="none">
<path d="M608 1687 l-368 -212 3 -434 2 -435 369 -213 c202 -117 371 -213 376
-213 4 0 132 72 285 161 153 88 284 163 292 166 11 4 13 -31 13 -191 0 -108 3
-196 7 -196 3 0 39 19 79 42 l74 43 0 635 0 635 -370 213 c-203 116 -375 212
-382 212 -7 -1 -178 -96 -380 -213z m416 34 c9 -10 16 -24 14 -30 -3 -11 57
-49 354 -220 106 -61 130 -71 146 -62 16 8 25 7 43 -7 31 -26 20 -70 -20 -78
-23 -5 -40 -27 -104 -138 -42 -73 -77 -136 -77 -141 0 -20 156 -275 169 -275
20 0 51 -30 51 -50 0 -9 -9 -25 -20 -35 -16 -14 -25 -16 -43 -8 -19 9 -55 -9
-259 -126 -171 -98 -238 -142 -242 -158 -11 -42 -81 -42 -91 0 -4 16 -70 59
-245 160 -214 124 -241 137 -259 125 -18 -11 -24 -10 -42 9 -28 28 -19 68 17
80 20 7 46 42 104 142 l77 133 -80 138 c-59 101 -87 140 -103 144 -35 9 -43
54 -15 78 18 14 27 15 43 7 20 -11 20 -10 446 235 31 18 52 37 52 47 0 23 27
49 49 49 10 0 26 -8 35 -19z"/>
<path d="M707 1523 c-130 -75 -237 -140 -237 -145 0 -4 72 -8 159 -8 l159 0
82 141 c44 78 80 143 78 145 -2 2 -111 -58 -241 -133z"/>
<path d="M1031 1640 c8 -14 48 -81 87 -150 l72 -125 160 3 c88 2 160 6 160 11
0 7 -438 263 -475 277 -19 8 -19 7 -4 -16z"/>
<path d="M956 1628 c-8 -13 -44 -75 -80 -138 l-66 -115 62 -6 63 -6 -67 -1
-67 -2 -41 -70 c-23 -39 -39 -74 -35 -79 3 -5 53 -36 113 -69 132 -73 162 -75
267 -17 38 22 64 40 58 42 -6 2 -40 39 -76 81 -58 69 -68 77 -99 77 -31 0 -43
-9 -103 -78 -37 -42 -70 -77 -73 -77 -6 0 -2 5 81 101 43 50 55 70 50 87 -6
26 21 62 47 62 28 0 53 -35 46 -67 -5 -24 3 -38 67 -107 l73 -80 42 24 c38 22
41 25 29 44 -7 12 -64 110 -127 219 -118 205 -134 222 -164 175z m182 -265
c-15 -2 -42 -2 -60 0 -18 2 -6 4 27 4 33 0 48 -2 33 -4z"/>
<path d="M472 1354 c4 -3 55 -34 115 -69 123 -72 111 -73 166 25 l28 50 -157
0 c-87 0 -155 -3 -152 -6z"/>
<path d="M1200 1355 c0 -3 17 -35 37 -70 l37 -64 30 18 c17 10 68 40 114 66
45 26 82 49 82 51 0 2 -67 4 -150 4 -82 0 -150 -2 -150 -5z"/>
<path d="M456 1333 c-3 -3 7 -26 21 -52 15 -25 50 -86 79 -134 l51 -89 42 73
c23 40 38 75 34 79 -22 19 -222 127 -227 123z m104 -119 c46 -53 79 -95 73
-93 -15 6 -171 189 -161 189 3 0 42 -43 88 -96z"/>
<path d="M1395 1274 c-60 -35 -110 -66 -109 -70 1 -3 11 -23 23 -44 l22 -39
71 82 c94 108 98 112 98 104 0 -4 -30 -42 -68 -84 -99 -115 -94 -107 -81 -137
12 -26 14 -24 82 91 38 65 70 123 71 128 1 6 5 16 9 23 13 20 -3 13 -118 -54z"/>
<path d="M678 1150 l-27 -48 27 -25 27 -25 35 44 c19 23 39 43 43 43 5 1 -11
-21 -34 -49 l-42 -50 37 -40 c20 -22 36 -43 36 -48 0 -4 -18 13 -39 38 l-39
45 -26 -28 -25 -27 26 -44 26 -43 116 68 c74 42 117 74 119 85 2 14 -13 28
-55 51 -32 18 -85 48 -118 67 l-60 34 -27 -48z"/>
<path d="M1150 1131 c-92 -53 -114 -70 -112 -86 2 -14 37 -40 111 -82 59 -35
110 -63 114 -63 3 0 25 33 49 73 l44 72 -41 73 c-23 39 -44 74 -46 76 -2 2
-56 -26 -119 -63z m81 -33 l37 -43 28 25 28 25 -22 -29 c-22 -29 -21 -35 7
-71 10 -13 6 -11 -13 5 l-28 25 -37 -42 c-20 -24 -40 -43 -45 -43 -5 0 10 20
33 45 22 24 41 47 41 50 0 3 -19 26 -41 50 -23 25 -38 45 -33 45 5 0 25 -19
45 -42z"/>
<path d="M631 1066 c-11 -19 -10 -28 1 -50 l14 -27 23 25 c23 24 23 26 7 51
-20 31 -29 31 -45 1z"/>
<path d="M1351 1004 c-14 -31 -14 -30 64 -119 33 -38 67 -79 74 -90 17 -26
-47 43 -110 117 l-48 58 -25 -42 -25 -42 117 -67 c64 -37 119 -65 122 -62 2 2
0 7 -5 11 -6 4 -11 12 -12 18 -2 9 -129 232 -137 242 -2 1 -8 -10 -15 -24z"/>
<path d="M531 894 c-40 -69 -71 -127 -69 -130 3 -2 55 24 115 59 l111 63 -35
59 c-19 33 -38 63 -42 67 -4 5 -40 -49 -80 -118z m88 49 c-14 -19 -126 -150
-142 -168 -5 -5 -5 -1 1 10 12 23 142 175 150 175 2 0 -2 -8 -9 -17z"/>
<path d="M873 974 c-35 -20 -63 -39 -63 -42 0 -4 31 -43 69 -88 65 -75 72 -81
106 -79 31 2 44 13 105 83 39 44 70 82 70 85 0 3 -29 22 -65 42 -53 29 -68 34
-85 25 -14 -7 -26 -8 -39 0 -27 14 -28 14 -98 -26z"/>
<path d="M751 903 l-42 -25 20 -31 c11 -18 31 -52 44 -76 l26 -44 63 0 63 0
-57 -4 c-32 -2 -58 -7 -58 -11 0 -4 33 -63 73 -132 100 -171 100 -171 200 0
42 72 77 133 77 135 0 2 -24 6 -52 8 l-53 4 57 -1 56 -1 45 77 45 78 -41 25
c-32 19 -44 22 -53 12 -121 -138 -143 -166 -134 -172 26 -16 -6 -75 -42 -75
-23 0 -51 37 -45 59 4 15 -16 44 -73 110 l-77 89 -42 -25z"/>
<path d="M592 811 c-57 -32 -108 -63 -115 -70 -8 -8 27 -11 141 -11 84 0 152
3 152 6 0 6 -70 134 -73 134 -1 0 -48 -27 -105 -59z"/>
<path d="M1147 658 c-69 -117 -121 -217 -117 -221 9 -10 472 254 478 272 3 8
-42 12 -155 13 l-158 2 158 6 159 5 -113 65 c-62 36 -115 66 -119 68 -4 1 -64
-93 -133 -210z"/>
<path d="M622 722 c-95 -1 -152 -6 -150 -12 3 -10 469 -283 474 -278 3 3 -159
286 -167 290 -2 2 -73 2 -157 0z"/>
</g>
</svg>
