<svg id="Layer_1" data-name="Layer 1" xmlns="http://www.w3.org/2000/svg" viewBox="0 0 300 300"><defs><style>.cls-1{fill:#292763;}.cls-2{fill:#ff3a94;}.cls-3{fill:#fff6e4;}.cls-3,.cls-5{stroke:#ededee;}.cls-3,.cls-4,.cls-5{stroke-miterlimit:10;}.cls-4,.cls-5{fill:none;}.cls-4{stroke:#fff;opacity:0.3;}.cls-6{fill:#dfeffc;}</style></defs><polygon class="cls-1" points="222.69 72.97 151.24 31.71 79.79 72.97 79.79 155.48 151.24 196.73 207.02 164.52 207.02 203 222.69 193.92 222.69 72.97"/><polygon class="cls-2" points="205.04 145.15 205.04 83.03 151.24 51.97 97.44 83.03 97.44 145.15 151.24 176.21 205.04 145.15"/><line class="cls-3" x1="151.24" y1="51.97" x2="205.04" y2="144.82"/><line class="cls-3" x1="150.39" y1="52.73" x2="97.23" y2="144.48"/><line class="cls-3" x1="96.67" y1="82.95" x2="149.83" y2="174.7"/><line class="cls-4" x1="97.23" y1="83.42" x2="203.55" y2="83.42"/><line class="cls-4" x1="97.44" y1="144.5" x2="205.04" y2="144.5"/><line class="cls-4" x1="97.23" y1="83.42" x2="150.39" y2="144.88"/><line class="cls-4" x1="205.04" y1="83.03" x2="150.89" y2="144.82"/><line class="cls-4" x1="151.24" y1="83.03" x2="205.04" y2="145.15"/><line class="cls-4" x1="150.37" y1="83.4" x2="97.23" y2="144.8"/><line class="cls-3" x1="97.44" y1="83.03" x2="205.04" y2="144.82"/><line class="cls-3" x1="203.55" y1="83.42" x2="97.23" y2="144.48"/><line class="cls-3" x1="205.04" y1="83.03" x2="151.24" y2="174.92"/><line class="cls-5" x1="205.04" y1="145.15" x2="151.24" y2="176.21"/><line class="cls-5" x1="151.04" y1="52.15" x2="97.24" y2="83.21"/><line class="cls-3" x1="150.39" y1="175.49" x2="97.23" y2="144.8"/><line class="cls-3" x1="202.92" y1="82.35" x2="149.76" y2="51.66"/><circle class="cls-6" cx="151.24" cy="83.01" r="4.18"/><circle class="cls-6" cx="151.24" cy="144.82" r="4.18"/><circle class="cls-6" cx="151.24" cy="114.09" r="4.18"/><circle class="cls-6" cx="151.24" cy="51.97" r="4.18"/><circle class="cls-6" cx="97.44" cy="83.01" r="4.18"/><circle class="cls-6" cx="205.04" cy="83.01" r="4.18"/><circle class="cls-6" cx="97.44" cy="144.82" r="4.18"/><circle class="cls-6" cx="205.04" cy="144.82" r="4.18"/><circle class="cls-6" cx="151.24" cy="174.92" r="4.18"/><path class="cls-2" d="M43.07,223.3a2.21,2.21,0,0,1,.81-.92,2.15,2.15,0,0,1,1.23-.4h8.4a2.06,2.06,0,0,1,1.17.4,2.21,2.21,0,0,1,.81.92L73,264.1a1.25,1.25,0,0,1-.09,1.15,1.33,1.33,0,0,1-1.29.59H61.37a2.13,2.13,0,0,1-1.23-.38,2.77,2.77,0,0,1-.87-.94l-1.62-3.6a2.63,2.63,0,0,0-.87-.92,2.06,2.06,0,0,0-1.17-.4H43a2.39,2.39,0,0,0-2,1.32l-1.68,3.6a2.25,2.25,0,0,1-.81.94,2,2,0,0,1-1.17.38H26.93a1.63,1.63,0,0,1-.63-.12,1.12,1.12,0,0,1-.54-.36,1.15,1.15,0,0,1-.27-.6,1.41,1.41,0,0,1,.18-.84Zm3.54,26.1H52a1,1,0,0,0,.87-.39.83.83,0,0,0,0-.93c-.4-1-.88-2.16-1.44-3.5l-1.56-3.75c-.16-.37-.34-.54-.54-.54s-.38.17-.54.54l-3,7.25a.87.87,0,0,0,.9,1.32Z"/><path class="cls-2" d="M88.14,265.84h-9a1.32,1.32,0,0,1-1-.42,1.43,1.43,0,0,1-.39-1v-41a1.46,1.46,0,0,1,.39-1,1.36,1.36,0,0,1,1-.42h9a1.35,1.35,0,0,1,1,.42,1.4,1.4,0,0,1,.42,1v41a1.37,1.37,0,0,1-.42,1A1.31,1.31,0,0,1,88.14,265.84Z"/><path class="cls-2" d="M141.53,256v8.46a1.36,1.36,0,0,1-.42,1,1.39,1.39,0,0,1-1,.42h-20.7a28.09,28.09,0,0,1-10.5-1.77,20.32,20.32,0,0,1-7.35-4.8,19,19,0,0,1-4.32-7.08,26.14,26.14,0,0,1-1.41-8.67,22,22,0,0,1,1.74-8.7,22.45,22.45,0,0,1,4.77-7.11,23,23,0,0,1,7.08-4.8,22.31,22.31,0,0,1,17.37,0,22.92,22.92,0,0,1,7.11,4.8,22.45,22.45,0,0,1,4.77,7.11,22,22,0,0,1,1.74,8.7,15.49,15.49,0,0,1-3.6,9.9c-.52.73-.36,1.08.48,1.08h2.82a1.43,1.43,0,0,1,1,.42A1.4,1.4,0,0,1,141.53,256Zm-23.43-1.79a9.38,9.38,0,0,0,4-.88,11.37,11.37,0,0,0,3.32-2.31,10.21,10.21,0,0,0,2.24-3.35,10.47,10.47,0,0,0,.81-4.09,10.81,10.81,0,0,0-3-7.53,10.8,10.8,0,0,0-3.32-2.3,10,10,0,0,0-8.08,0,10.62,10.62,0,0,0-5.56,5.72,10.64,10.64,0,0,0-.81,4.11,10.48,10.48,0,0,0,3,7.44,11.51,11.51,0,0,0,3.32,2.31A9.42,9.42,0,0,0,118.1,254.21Z"/><path class="cls-2" d="M147.23,223.42a1.4,1.4,0,0,1,.42-1,1.38,1.38,0,0,1,1-.42h9a1.35,1.35,0,0,1,1,.42,1.4,1.4,0,0,1,.42,1v24.3a8.72,8.72,0,0,0,.75,3.87,6.6,6.6,0,0,0,4.25,3.63,7.46,7.46,0,0,0,4.58,0A6.61,6.61,0,0,0,171,254a7,7,0,0,0,1.84-2.41,8.72,8.72,0,0,0,.75-3.87v-24.3a1.4,1.4,0,0,1,.42-1,1.38,1.38,0,0,1,1-.42h9a1.37,1.37,0,0,1,1,.42,1.4,1.4,0,0,1,.42,1v24.3a21.17,21.17,0,0,1-1.35,7.74,16.43,16.43,0,0,1-3.86,5.94,17.51,17.51,0,0,1-6.05,3.81,23.5,23.5,0,0,1-15.7,0,17.51,17.51,0,0,1-6.05-3.81,16.76,16.76,0,0,1-3.89-5.94,20.76,20.76,0,0,1-1.38-7.74Z"/><path class="cls-2" d="M224.57,243.22a14.65,14.65,0,0,1,1.92,1.32,10.24,10.24,0,0,1,1.77,1.92,10.35,10.35,0,0,1,1.32,2.64,10.69,10.69,0,0,1,.51,3.42,14.81,14.81,0,0,1-1.23,6.45,10.53,10.53,0,0,1-3.33,4.08,12.94,12.94,0,0,1-4.83,2.16,25.41,25.41,0,0,1-5.73.63H196a1.35,1.35,0,0,1-1-.42,1.37,1.37,0,0,1-.42-1v-41a1.4,1.4,0,0,1,.42-1,1.43,1.43,0,0,1,1-.42h18.12a23.71,23.71,0,0,1,5.52.63,13.3,13.3,0,0,1,4.65,2.07,10.68,10.68,0,0,1,3.24,3.76,11.9,11.9,0,0,1,1.23,5.66,8.1,8.1,0,0,1-1.35,4.68,12.58,12.58,0,0,1-2.91,3.12Q223.37,242.64,224.57,243.22Zm-16.74-4.62h5.58a2.31,2.31,0,0,0,1.92-.93,3.28,3.28,0,0,0,.72-2.07,2.38,2.38,0,0,0-.87-1.85,2.57,2.57,0,0,0-1.65-.79h-5.7a1.43,1.43,0,0,0-1,.42,1.4,1.4,0,0,0-.42,1v2.77a1.35,1.35,0,0,0,.42,1A1.39,1.39,0,0,0,207.83,238.6Zm6.3,9.9h-6.3a1.43,1.43,0,0,0-1,.42,1.4,1.4,0,0,0-.42,1v3.42a1.37,1.37,0,0,0,.42,1,1.35,1.35,0,0,0,1,.42h6.72a3,3,0,0,0,2-.9,2.78,2.78,0,0,0,1-2.1,3.46,3.46,0,0,0-.93-2.19A3.11,3.11,0,0,0,214.13,248.5Z"/><path class="cls-2" d="M248.39,234.4v2.52a1.36,1.36,0,0,0,.42,1,1.39,1.39,0,0,0,1,.42h16.26a1.36,1.36,0,0,1,1,.43,1.38,1.38,0,0,1,.42,1v8.28a1.36,1.36,0,0,1-.42,1,1.39,1.39,0,0,1-1,.42H249.83a1.43,1.43,0,0,0-1,.42,1.4,1.4,0,0,0-.42,1v2.29a1.35,1.35,0,0,0,.42,1,1.39,1.39,0,0,0,1,.42h18.66a1.43,1.43,0,0,1,1,.42,1.4,1.4,0,0,1,.42,1v8.28a1.37,1.37,0,0,1-.42,1,1.35,1.35,0,0,1-1,.42H238a1.35,1.35,0,0,1-1-.42,1.37,1.37,0,0,1-.42-1v-41a1.4,1.4,0,0,1,.42-1,1.43,1.43,0,0,1,1-.42h30.54a1.43,1.43,0,0,1,1,.42,1.4,1.4,0,0,1,.42,1v8.16a1.37,1.37,0,0,1-.42,1,1.35,1.35,0,0,1-1,.42H249.83a1.43,1.43,0,0,0-1,.42A1.4,1.4,0,0,0,248.39,234.4Z"/></svg>